<mxfile host="app.diagrams.net" modified="2021-03-04T08:11:03.444Z" agent="5.0 (Windows)" etag="3BDvDjg8MZLFy6bX6xbI" version="14.4.3" type="github">
  <diagram id="qOFyobXN0Mq-CiQKv2Zu" name="Page-1">
    <mxGraphModel dx="1282" dy="724" grid="1" gridSize="10" guides="1" tooltips="1" connect="1" arrows="1" fold="1" page="1" pageScale="1" pageWidth="850" pageHeight="1100" math="0" shadow="0">
      <root>
        <mxCell id="0" />
        <mxCell id="1" parent="0" />
        <mxCell id="nw7Z1e0yYwuRSuZx_-R6-2" value="" style="rounded=0;whiteSpace=wrap;html=1;align=left;" parent="1" vertex="1">
          <mxGeometry x="150" y="110" width="460" height="120" as="geometry" />
        </mxCell>
        <mxCell id="nw7Z1e0yYwuRSuZx_-R6-9" value="&lt;div&gt;Brownfield&lt;/div&gt;&lt;div&gt;S3 / Redshift&lt;br&gt;&lt;/div&gt;" style="shape=cylinder3;whiteSpace=wrap;html=1;boundedLbl=1;backgroundOutline=1;size=15;" parent="1" vertex="1">
          <mxGeometry x="400" y="300" width="90" height="80" as="geometry" />
        </mxCell>
        <mxCell id="nw7Z1e0yYwuRSuZx_-R6-7" value="OneCloud AWS" style="text;html=1;strokeColor=none;fillColor=none;align=center;verticalAlign=middle;whiteSpace=wrap;rounded=0;" parent="1" vertex="1">
          <mxGeometry x="325" y="110" width="110" height="20" as="geometry" />
        </mxCell>
        <mxCell id="nw7Z1e0yYwuRSuZx_-R6-8" value="Billing Upload MS" style="rounded=0;whiteSpace=wrap;html=1;fillColor=#dae8fc;strokeColor=#6c8ebf;" parent="1" vertex="1">
          <mxGeometry x="445" y="140" width="140" height="60" as="geometry" />
        </mxCell>
        <mxCell id="nw7Z1e0yYwuRSuZx_-R6-10" value="&lt;div&gt;OneCloud&lt;/div&gt;&lt;div&gt;S3 / Redshift&lt;br&gt;&lt;/div&gt;" style="shape=cylinder3;whiteSpace=wrap;html=1;boundedLbl=1;backgroundOutline=1;size=15;" parent="1" vertex="1">
          <mxGeometry x="567" y="300" width="90" height="80" as="geometry" />
        </mxCell>
        <mxCell id="nw7Z1e0yYwuRSuZx_-R6-11" value="&lt;div&gt;Customer&lt;/div&gt;" style="shape=umlActor;verticalLabelPosition=bottom;verticalAlign=top;html=1;outlineConnect=0;" parent="1" vertex="1">
          <mxGeometry x="50" y="140" width="30" height="60" as="geometry" />
        </mxCell>
        <mxCell id="nw7Z1e0yYwuRSuZx_-R6-12" value="" style="endArrow=classic;html=1;entryX=0.5;entryY=0;entryDx=0;entryDy=0;entryPerimeter=0;exitX=0.25;exitY=1;exitDx=0;exitDy=0;" parent="1" source="nw7Z1e0yYwuRSuZx_-R6-8" target="nw7Z1e0yYwuRSuZx_-R6-9" edge="1">
          <mxGeometry width="50" height="50" relative="1" as="geometry">
            <mxPoint x="400" y="400" as="sourcePoint" />
            <mxPoint x="450" y="350" as="targetPoint" />
          </mxGeometry>
        </mxCell>
        <mxCell id="nw7Z1e0yYwuRSuZx_-R6-13" value="" style="endArrow=classic;html=1;entryX=0.5;entryY=0;entryDx=0;entryDy=0;entryPerimeter=0;exitX=0.75;exitY=1;exitDx=0;exitDy=0;" parent="1" source="nw7Z1e0yYwuRSuZx_-R6-8" target="nw7Z1e0yYwuRSuZx_-R6-10" edge="1">
          <mxGeometry width="50" height="50" relative="1" as="geometry">
            <mxPoint x="570" y="480" as="sourcePoint" />
            <mxPoint x="445" y="300" as="targetPoint" />
          </mxGeometry>
        </mxCell>
        <mxCell id="nw7Z1e0yYwuRSuZx_-R6-14" value="Phase1" style="text;html=1;strokeColor=none;fillColor=none;align=center;verticalAlign=middle;whiteSpace=wrap;rounded=0;" parent="1" vertex="1">
          <mxGeometry x="460" y="270" width="40" height="20" as="geometry" />
        </mxCell>
        <mxCell id="nw7Z1e0yYwuRSuZx_-R6-15" value="Phase2" style="text;html=1;strokeColor=none;fillColor=none;align=center;verticalAlign=middle;whiteSpace=wrap;rounded=0;" parent="1" vertex="1">
          <mxGeometry x="617" y="270" width="50" height="20" as="geometry" />
        </mxCell>
        <mxCell id="nw7Z1e0yYwuRSuZx_-R6-16" value="" style="endArrow=classic;html=1;entryX=0;entryY=0.5;entryDx=0;entryDy=0;entryPerimeter=0;exitX=1;exitY=0.5;exitDx=0;exitDy=0;exitPerimeter=0;" parent="1" source="nw7Z1e0yYwuRSuZx_-R6-9" target="nw7Z1e0yYwuRSuZx_-R6-10" edge="1">
          <mxGeometry width="50" height="50" relative="1" as="geometry">
            <mxPoint x="400" y="400" as="sourcePoint" />
            <mxPoint x="450" y="350" as="targetPoint" />
          </mxGeometry>
        </mxCell>
        <mxCell id="nw7Z1e0yYwuRSuZx_-R6-17" value="Phase2&lt;br&gt;Migration" style="text;html=1;strokeColor=none;fillColor=none;align=center;verticalAlign=middle;whiteSpace=wrap;rounded=0;" parent="1" vertex="1">
          <mxGeometry x="490" y="310" width="80" height="30" as="geometry" />
        </mxCell>
        <mxCell id="nw7Z1e0yYwuRSuZx_-R6-18" value="" style="endArrow=classic;html=1;entryX=0;entryY=0.5;entryDx=0;entryDy=0;" parent="1" source="nw7Z1e0yYwuRSuZx_-R6-11" target="nw7Z1e0yYwuRSuZx_-R6-1" edge="1">
          <mxGeometry width="50" height="50" relative="1" as="geometry">
            <mxPoint x="400" y="400" as="sourcePoint" />
            <mxPoint x="450" y="350" as="targetPoint" />
          </mxGeometry>
        </mxCell>
        <mxCell id="nw7Z1e0yYwuRSuZx_-R6-20" value="Upload" style="text;html=1;strokeColor=none;fillColor=none;align=center;verticalAlign=middle;whiteSpace=wrap;rounded=0;" parent="1" vertex="1">
          <mxGeometry x="90" y="150" width="40" height="20" as="geometry" />
        </mxCell>
        <mxCell id="nw7Z1e0yYwuRSuZx_-R6-1" value="Compass&lt;br&gt;&lt;div&gt;Nginx&lt;/div&gt;&lt;div&gt;compass.calix.com:9444&lt;br&gt;&lt;/div&gt;" style="rounded=0;whiteSpace=wrap;html=1;fillColor=#dae8fc;strokeColor=#6c8ebf;" parent="1" vertex="1">
          <mxGeometry x="150" y="140" width="175" height="60" as="geometry" />
        </mxCell>
        <mxCell id="nw7Z1e0yYwuRSuZx_-R6-21" value="Forward" style="text;html=1;strokeColor=none;fillColor=none;align=center;verticalAlign=middle;whiteSpace=wrap;rounded=0;" parent="1" vertex="1">
          <mxGeometry x="380" y="150" width="40" height="20" as="geometry" />
        </mxCell>
        <mxCell id="A_ncIWWZQoc2g-2OIysS-1" value="" style="rounded=0;whiteSpace=wrap;html=1;" vertex="1" parent="1">
          <mxGeometry x="150" y="400" width="210" height="110" as="geometry" />
        </mxCell>
        <mxCell id="A_ncIWWZQoc2g-2OIysS-2" value="zColo" style="text;html=1;strokeColor=none;fillColor=none;align=center;verticalAlign=middle;whiteSpace=wrap;rounded=0;" vertex="1" parent="1">
          <mxGeometry x="150" y="400" width="50" height="20" as="geometry" />
        </mxCell>
        <mxCell id="A_ncIWWZQoc2g-2OIysS-3" value="Meteor" style="rounded=0;whiteSpace=wrap;html=1;fillColor=#fff2cc;strokeColor=#d6b656;" vertex="1" parent="1">
          <mxGeometry x="160" y="430" width="80" height="40" as="geometry" />
        </mxCell>
        <mxCell id="nw7Z1e0yYwuRSuZx_-R6-19" value="" style="endArrow=classic;html=1;entryX=0;entryY=0.5;entryDx=0;entryDy=0;exitX=1;exitY=0.5;exitDx=0;exitDy=0;" parent="1" source="nw7Z1e0yYwuRSuZx_-R6-1" target="nw7Z1e0yYwuRSuZx_-R6-8" edge="1">
          <mxGeometry width="50" height="50" relative="1" as="geometry">
            <mxPoint x="80" y="170" as="sourcePoint" />
            <mxPoint x="150" y="170" as="targetPoint" />
          </mxGeometry>
        </mxCell>
        <mxCell id="A_ncIWWZQoc2g-2OIysS-4" value="Jasper" style="rounded=0;whiteSpace=wrap;html=1;fillColor=#ffe6cc;strokeColor=#d79b00;" vertex="1" parent="1">
          <mxGeometry x="260" y="430" width="80" height="40" as="geometry" />
        </mxCell>
        <mxCell id="A_ncIWWZQoc2g-2OIysS-5" value="" style="endArrow=classic;html=1;entryX=0.5;entryY=0;entryDx=0;entryDy=0;exitX=0.5;exitY=1;exitDx=0;exitDy=0;" edge="1" parent="1" source="nw7Z1e0yYwuRSuZx_-R6-1" target="A_ncIWWZQoc2g-2OIysS-3">
          <mxGeometry width="50" height="50" relative="1" as="geometry">
            <mxPoint x="400" y="400" as="sourcePoint" />
            <mxPoint x="450" y="350" as="targetPoint" />
            <Array as="points">
              <mxPoint x="238" y="390" />
            </Array>
          </mxGeometry>
        </mxCell>
        <mxCell id="A_ncIWWZQoc2g-2OIysS-6" value="" style="endArrow=classic;html=1;entryX=0.5;entryY=0;entryDx=0;entryDy=0;exitX=0.5;exitY=1;exitDx=0;exitDy=0;" edge="1" parent="1" source="nw7Z1e0yYwuRSuZx_-R6-1" target="A_ncIWWZQoc2g-2OIysS-4">
          <mxGeometry width="50" height="50" relative="1" as="geometry">
            <mxPoint x="237.5" y="200" as="sourcePoint" />
            <mxPoint x="200" y="430" as="targetPoint" />
            <Array as="points">
              <mxPoint x="238" y="390" />
            </Array>
          </mxGeometry>
        </mxCell>
        <mxCell id="A_ncIWWZQoc2g-2OIysS-7" value="Proxy" style="text;html=1;strokeColor=none;fillColor=none;align=center;verticalAlign=middle;whiteSpace=wrap;rounded=0;" vertex="1" parent="1">
          <mxGeometry x="240" y="200" width="40" height="20" as="geometry" />
        </mxCell>
        <mxCell id="A_ncIWWZQoc2g-2OIysS-9" value="" style="shape=flexArrow;endArrow=classic;startArrow=classic;html=1;exitX=0.81;exitY=0;exitDx=0;exitDy=0;exitPerimeter=0;entryX=0.37;entryY=1;entryDx=0;entryDy=0;entryPerimeter=0;dashed=1;endWidth=26;endSize=5.73;width=58;startSize=3.36;" edge="1" parent="1">
          <mxGeometry width="50" height="50" relative="1" as="geometry">
            <mxPoint x="237.0999999999999" y="400" as="sourcePoint" />
            <mxPoint x="237.20000000000005" y="230" as="targetPoint" />
            <Array as="points">
              <mxPoint x="237" y="370" />
              <mxPoint x="237" y="260" />
            </Array>
          </mxGeometry>
        </mxCell>
        <mxCell id="A_ncIWWZQoc2g-2OIysS-13" value="VPN Tunnel" style="edgeLabel;html=1;align=center;verticalAlign=middle;resizable=0;points=[];rotation=-90;fontSize=13;fontStyle=1" vertex="1" connectable="0" parent="A_ncIWWZQoc2g-2OIysS-9">
          <mxGeometry x="-0.1647" y="-8" relative="1" as="geometry">
            <mxPoint x="-8.14" y="-9" as="offset" />
          </mxGeometry>
        </mxCell>
      </root>
    </mxGraphModel>
  </diagram>
</mxfile>
